<svg xmlns="http://www.w3.org/2000/svg" width="101.377" height="137.024" viewBox="0 0 101.377 137.024">
  <g id="Arbol_Izq" transform="translate(-275.429 13.838)">
    <path id="Trazado_771" data-name="Trazado 771" d="M234,140.5c-.223,6.365-2.751,19.1-10.3,32.709A84.541,84.541,0,0,1,209,192.5c-24,23.5-26.5,46-26.5,50" transform="translate(139 -140)" fill="none" stroke="#3e8d31" stroke-width="5"/>
    <path id="Trazado_759" data-name="Trazado 759" d="M270.5,107.5c-1.833,14.333-11.8,42-37,38-19.041-3.022-25.476,8.389-30.459,17.225-3.261,5.782-5.9,10.462-11.041,9.275-3.471-.8-6.073-3.815-8-7.879V150a54.007,54.007,0,0,1,85.13-44.13Z" transform="translate(551.5 219.186) rotate(180)" fill="#3e8d31" fill-rule="evenodd"/>
    <g id="Grupo_357" data-name="Grupo 357" transform="translate(61.671 38.38) rotate(-9)">
      <path id="Trazado_924" data-name="Trazado 924" d="M285.369,175.363c-1.241-8.181-8.825-22.833-29.23-15.99C260.433,172.393,267.494,175.266,285.369,175.363Z" transform="translate(-31 -107)" fill="#77bc3d"/>
      <path id="Trazado_925" data-name="Trazado 925" d="M272.286,152.329c-1.241-8.181-8.825-22.832-29.23-15.99C247.35,149.36,254.411,152.233,272.286,152.329Z" transform="translate(-31 -107)" fill="#77bc3d"/>
      <path id="Trazado_926" data-name="Trazado 926" d="M291.484,178.758c-4.589-6-9.466-20.249,7.735-29.223C305.077,160.6,302.56,167.031,291.484,178.758Z" transform="translate(-31 -107)" fill="#77bc3d"/>
      <path id="Trazado_927" data-name="Trazado 927" d="M281.046,155.525c-4.588-6-9.465-20.248,7.735-29.222C294.639,137.368,292.122,143.8,281.046,155.525Z" transform="translate(-31 -107)" fill="#77bc3d"/>
      <path id="Trazado_928" data-name="Trazado 928" d="M253.135,140.149c21.185,8.349,26.8,20.977,37.764,40.93-10.9-19.833-13.287-29.026-4.8-49.546" transform="translate(-31 -107)" fill="none" stroke="#367700" stroke-linecap="round" stroke-linejoin="round" stroke-width="1"/>
      <path id="Trazado_929" data-name="Trazado 929" d="M262.557,162.481c12.634,2.128,19.612,8.536,28.342,18.6,1.386-5.759,2.584-17.857,6.33-25.971" transform="translate(-31 -107)" fill="none" stroke="#367700" stroke-linecap="round" stroke-linejoin="round" stroke-width="1"/>
    </g>
    <path id="Trazado_787" data-name="Trazado 787" d="M223.4,154c-9.65,7.747-28.307,32.126-25.734,67.671" transform="translate(144 -164.373)" fill="none" stroke="#3e8d31" stroke-width="5"/>
    <path id="Trazado_761" data-name="Trazado 761" d="M260.477,100.886C248.9,103.253,231.956,110.07,239.5,119.5c5.714,7.143-4.1,10.03-13.827,13.768-7.295,2.8-14.173,0-17.673,10.732-3.6,11.026-14.044,17.812-24,17.492V150a54.026,54.026,0,0,1,76.477-49.114Z" transform="translate(551.477 218.502) rotate(180)" fill="#77bc3d" fill-rule="evenodd"/>
    <g id="Grupo_358" data-name="Grupo 358" transform="translate(138.784 -115.506) rotate(21)">
      <path id="Trazado_924-2" data-name="Trazado 924" d="M285.369,175.363c-1.241-8.181-8.825-22.833-29.23-15.99C260.433,172.393,267.494,175.266,285.369,175.363Z" transform="translate(-31 -107)" fill="#77bc3d"/>
      <path id="Trazado_925-2" data-name="Trazado 925" d="M272.286,152.329c-1.241-8.181-8.825-22.832-29.23-15.99C247.35,149.36,254.411,152.233,272.286,152.329Z" transform="translate(-31 -107)" fill="#77bc3d"/>
      <path id="Trazado_926-2" data-name="Trazado 926" d="M291.484,178.758c-4.589-6-9.466-20.249,7.735-29.223C305.077,160.6,302.56,167.031,291.484,178.758Z" transform="translate(-31 -107)" fill="#77bc3d"/>
      <path id="Trazado_927-2" data-name="Trazado 927" d="M281.046,155.525c-4.588-6-9.465-20.248,7.735-29.222C294.639,137.368,292.122,143.8,281.046,155.525Z" transform="translate(-31 -107)" fill="#77bc3d"/>
      <path id="Trazado_928-2" data-name="Trazado 928" d="M253.135,140.149c21.185,8.349,26.8,20.977,37.764,40.93-10.9-19.833-13.287-29.026-4.8-49.546" transform="translate(-31 -107)" fill="none" stroke="#367700" stroke-linecap="round" stroke-linejoin="round" stroke-width="1"/>
      <path id="Trazado_929-2" data-name="Trazado 929" d="M262.557,162.481c12.634,2.128,19.612,8.536,28.342,18.6,1.386-5.759,2.584-17.857,6.33-25.971" transform="translate(-31 -107)" fill="none" stroke="#367700" stroke-linecap="round" stroke-linejoin="round" stroke-width="1"/>
    </g>
  </g>
</svg>
