<svg xmlns="http://www.w3.org/2000/svg" width="31" height="29" viewBox="0 0 31 29">
  <g id="Cerrar" transform="translate(-0.59 0.086)">
    <rect id="Rectángulo_84" data-name="Rectángulo 84" width="31" height="29" rx="6" transform="translate(0.59 -0.086)" fill="#ff6724"/>
    <path id="Trazado_36" data-name="Trazado 36" d="M4.667,4.736a1.047,1.047,0,0,0,1.48,0L7.315,3.564v8.952a1.044,1.044,0,1,0,2.089,0V3.564l1.168,1.168a1.044,1.044,0,1,0,1.477-1.477L9.1.308A1.047,1.047,0,0,0,7.62.3L4.67,3.256A1.043,1.043,0,0,0,4.667,4.736Zm9.955,14.053s0-9.4,0-9.4h-2.09a1.044,1.044,0,1,1,0-2.089h2.09A2.089,2.089,0,0,1,16.71,9.394v9.394a2.091,2.091,0,0,1-2.084,2.091H2.084A2.088,2.088,0,0,1,0,18.788V9.394A2.091,2.091,0,0,1,2.088,7.3h2.09a1.044,1.044,0,1,1,0,2.089s-2.089,0-2.089,0,0,9.4,0,9.4S14.621,18.789,14.621,18.788Z" transform="translate(26.214 6.247) rotate(90)" fill="#fff" fill-rule="evenodd"/>
  </g>
</svg>
