<svg xmlns="http://www.w3.org/2000/svg" width="395.504" height="149.36" viewBox="0 0 395.504 149.36">
  <g id="Grupo_397" data-name="Grupo 397" transform="translate(0 -1)">
    <g id="Árbol" transform="translate(72.549 229)">
      <path id="Trazado_771" data-name="Trazado 771" d="M0,63.453c4.01-9.007,16.538-28.259,34.572-33.219C57.114,24.034,67.543,3.89,69.155,0" transform="matrix(-0.951, 0.309, -0.309, -0.951, 320.487, -101.634)" fill="none" stroke="#3e8d31" stroke-width="5"/>
      <path id="Trazado_787" data-name="Trazado 787" d="M197.425,154c27.264,9.245,79.975,38.335,72.7,80.749" transform="translate(20.716 -331.738)" fill="none" stroke="#3e8d31" stroke-width="5"/>
      <path id="Trazado_800" data-name="Trazado 800" d="M191.677,189.465a14.758,14.758,0,0,0,16.285-.843,14.758,14.758,0,0,0-7.413-14.524c-5.813-3.357-15,1.586-15,1.586S185.863,186.108,191.677,189.465Z" transform="translate(83.583 -299.398)" fill="#6fe139"/>
      <path id="Trazado_801" data-name="Trazado 801" d="M201.227,189.176,184.642,179.6l-.29.5,16.585,9.575Z" transform="translate(91.047 -299.334)" fill="#2b7807" fill-rule="evenodd"/>
      <path id="Trazado_802" data-name="Trazado 802" d="M180.962,173.625a8.828,8.828,0,0,0,8.688,4.434,8.828,8.828,0,0,0,.5-9.741c-2.008-3.478-8.244-3.664-8.244-3.664S178.954,170.147,180.962,173.625Z" transform="translate(103.811 -300.37)" fill="#6fe139"/>
      <path id="Trazado_803" data-name="Trazado 803" d="M187.538,178.733l-5.728-9.921-.3.174,5.728,9.92Z" transform="translate(106.484 -300.199)" fill="#2b7807" fill-rule="evenodd"/>
      <path id="Trazado_804" data-name="Trazado 804" d="M195.578,207.48a11.908,11.908,0,0,0,5.98-11.718,11.907,11.907,0,0,0-13.138-.68c-4.689,2.708-4.941,11.118-4.941,11.118S190.888,210.187,195.578,207.48Z" transform="translate(91.382 -297.9)" fill="#6fe139"/>
      <path id="Trazado_805" data-name="Trazado 805" d="M195.791,195.081l-13.379,7.725.234.4,13.379-7.724Z" transform="translate(97.609 -298.216)" fill="#2b7807" fill-rule="evenodd"/>
      <path id="Trazado_806" data-name="Trazado 806" d="M211.3,203.976a11.906,11.906,0,0,0,8.809-9.771,11.906,11.906,0,0,0-12.514-4.056c-5.231,1.4-7.651,9.459-7.651,9.459S206.066,205.377,211.3,203.976Z" transform="translate(56.628 -298.243)" fill="#6fe139"/>
      <path id="Trazado_807" data-name="Trazado 807" d="M213.688,193.783l-14.922,4,.121.453,14.923-4Z" transform="translate(63.745 -298.542)" fill="#2b7807" fill-rule="evenodd"/>
      <path id="Trazado_812" data-name="Trazado 812" d="M204.153,98.114a9.61,9.61,0,0,0,2.215-10.386,9.61,9.61,0,0,0-10.385,2.215c-3.091,3.091-1.53,9.7-1.53,9.7S201.062,101.205,204.153,98.114Z" transform="translate(78.184 -310)" fill="#6fe139"/>
      <path id="Trazado_813" data-name="Trazado 813" d="M202.713,87.008,193.9,95.826l.268.267,8.818-8.818Z" transform="translate(78.677 -307)" fill="#2b7807" fill-rule="evenodd"/>
      <path id="Trazado_759" data-name="Trazado 759" d="M0,31.564c7.069-12.6,26.674-34.521,48.541-21.373C65.063,20.126,75.3,11.956,83.235,5.631c5.19-4.139,9.389-7.49,13.712-4.464,2.918,2.043,4.2,5.812,4.466,10.3l-5.29,13.093A54,54,0,0,1,25.826,54.4,53.758,53.758,0,0,1,.66,33.588Z" transform="translate(293.98 -162.775) rotate(169)" fill="#3e8d31" fill-rule="evenodd"/>
      <path id="Trazado_761" data-name="Trazado 761" d="M184,100.883c11.186,2.366,27.566,9.179,20.274,18.6-5.523,7.139,3.964,10.024,13.364,13.76,7.051,2.8,13.7,0,17.081,10.726,3.476,11.02,13.574,17.8,23.2,17.482V149.968c0-29.806-23.367-53.968-52.191-53.968A50.561,50.561,0,0,0,184,100.883Z" transform="translate(44.535 -309.962)" fill="#66b821" fill-rule="evenodd"/>
    </g>
    <rect id="Rectángulo_1" data-name="Rectángulo 1" width="375" height="56" transform="translate(0 1)" fill="#fff"/>
  </g>
</svg>
