<svg xmlns="http://www.w3.org/2000/svg" width="476.595" height="162.256" viewBox="0 0 476.595 162.256">
  <g id="Grupo_378" data-name="Grupo 378" transform="translate(207.127 42.035)">
    <g id="Grupo_358" data-name="Grupo 358" transform="translate(132.601 -25.066) rotate(52)">
      <path id="Trazado_924" data-name="Trazado 924" d="M14.877,9.3C14,4.054,14.355-3.015,0,1.375,3.021,9.726,2.3,9.24,14.877,9.3Z" transform="translate(0 34.558)" fill="#77bc3d"/>
      <path id="Trazado_925" data-name="Trazado 925" d="M11.153,6.786C10.68,3.66,7.786-1.939,0,.676,1.638,5.652,4.333,6.749,11.153,6.786Z" transform="translate(5.56 27.109) rotate(-11)" fill="#77bc3d"/>
      <path id="Trazado_926" data-name="Trazado 926" d="M4.34,29.223C-.249,23.221-5.126,8.974,12.075,0,17.933,11.065,15.416,17.5,4.34,29.223Z" transform="translate(22.922 23.232)" fill="#77bc3d"/>
      <path id="Trazado_927" data-name="Trazado 927" d="M4.339,29.222C-.249,23.221-5.126,8.974,12.074,0,17.932,11.065,15.415,17.5,4.339,29.222Z" transform="translate(12.485 0)" fill="#77bc3d"/>
      <path id="Trazado_928" data-name="Trazado 928" d="M0,23.3c21.185,8.349,5.575,6.3,16.54,26.25C5.641,29.713,3.253,20.52,11.738,0" transform="translate(10.137 5.23)" fill="none" stroke="#367700" stroke-linecap="round" stroke-linejoin="round" stroke-width="1"/>
      <path id="Trazado_929" data-name="Trazado 929" d="M0,9.69c12.634,2.128,14.533,6.219,23.263,16.281C24.649,20.212,25.847,8.114,29.593,0" transform="translate(3.414 28.805)" fill="none" stroke="#367700" stroke-linecap="round" stroke-linejoin="round" stroke-width="1"/>
    </g>
    <path id="Trazado_787" data-name="Trazado 787" d="M49.609,0C32.835,40.215-3.523,80.333.276,208.314" transform="translate(30.532 47.105) rotate(-91)" fill="none" stroke="#3e8d31" stroke-width="5"/>
    <path id="Trazado_771" data-name="Trazado 771" d="M299.14,137c-.446,3.854-7.7,13.346-22.8,21.583-7.047,3.844-16.729,7.923-29.4,11.68-6.865,2.035-12.85,4.057-18.335,6.137-31,11.758-62.8,17.813-62.8,19.888" transform="translate(-266.187 -139.5)" fill="none" stroke="#3e8d31" stroke-width="5"/>
    <g id="Grupo_376" data-name="Grupo 376" transform="matrix(-0.799, -0.602, 0.602, -0.799, -168.161, 80.158)">
      <path id="Trazado_924-2" data-name="Trazado 924" d="M29.23,17.759C27.989,9.578,20.4-5.074,0,1.769,4.294,14.789,11.355,17.662,29.23,17.759Z" transform="translate(13.083 31.301)" fill="#77bc3d"/>
      <path id="Trazado_925-2" data-name="Trazado 925" d="M29.23,17.759C27.989,9.578,20.4-5.073,0,1.769,4.294,14.79,11.355,17.663,29.23,17.759Z" transform="translate(0 8.267)" fill="#77bc3d"/>
      <path id="Trazado_926-2" data-name="Trazado 926" d="M4.34,29.223C-.249,23.221-5.126,8.974,12.075,0,17.933,11.065,15.416,17.5,4.34,29.223Z" transform="translate(44.088 23.232)" fill="#77bc3d"/>
      <path id="Trazado_927-2" data-name="Trazado 927" d="M4.339,29.222C-.249,23.221-5.126,8.974,12.074,0,17.932,11.065,15.415,17.5,4.339,29.222Z" transform="translate(33.651 0)" fill="#77bc3d"/>
      <path id="Trazado_928-2" data-name="Trazado 928" d="M0,8.616c21.185,8.349,26.8,20.977,37.764,40.93C26.865,29.713,24.477,20.52,32.962,0" transform="translate(10.079 5.23)" fill="none" stroke="#367700" stroke-linecap="round" stroke-linejoin="round" stroke-width="1"/>
      <path id="Trazado_929-2" data-name="Trazado 929" d="M0,7.373c12.634,2.128,19.612,8.536,28.342,18.6C29.728,20.212,30.926,8.114,34.672,0" transform="translate(19.501 28.805)" fill="none" stroke="#367700" stroke-linecap="round" stroke-linejoin="round" stroke-width="1"/>
    </g>
    <g id="Grupo_377" data-name="Grupo 377" transform="translate(-53.485 126.513) rotate(-169)">
      <path id="Trazado_924-3" data-name="Trazado 924" d="M29.23,17.759C27.989,9.578,20.4-5.074,0,1.769,4.294,14.789,11.355,17.662,29.23,17.759Z" transform="translate(13.083 31.301)" fill="#77bc3d"/>
      <path id="Trazado_925-3" data-name="Trazado 925" d="M29.23,17.759C27.989,9.578,20.4-5.073,0,1.769,4.294,14.79,11.355,17.663,29.23,17.759Z" transform="translate(0 8.267)" fill="#77bc3d"/>
      <path id="Trazado_926-3" data-name="Trazado 926" d="M4.34,29.223C-.249,23.221-5.126,8.974,12.075,0,17.933,11.065,15.416,17.5,4.34,29.223Z" transform="translate(44.088 23.232)" fill="#77bc3d"/>
      <path id="Trazado_927-3" data-name="Trazado 927" d="M4.339,29.222C-.249,23.221-5.126,8.974,12.074,0,17.932,11.065,15.415,17.5,4.339,29.222Z" transform="translate(33.651 0)" fill="#77bc3d"/>
      <path id="Trazado_928-3" data-name="Trazado 928" d="M0,8.616c21.185,8.349,26.8,20.977,37.764,40.93C26.865,29.713,24.477,20.52,32.962,0" transform="translate(10.079 5.23)" fill="none" stroke="#367700" stroke-linecap="round" stroke-linejoin="round" stroke-width="1"/>
      <path id="Trazado_929-3" data-name="Trazado 929" d="M0,7.373c12.634,2.128,19.612,8.536,28.342,18.6C29.728,20.212,30.926,8.114,34.672,0" transform="translate(19.501 28.805)" fill="none" stroke="#367700" stroke-linecap="round" stroke-linejoin="round" stroke-width="1"/>
    </g>
    <g id="Grupo_389" data-name="Grupo 389" transform="matrix(-0.276, -0.961, 0.961, -0.276, 40.76, 78.478)">
      <path id="Trazado_924-4" data-name="Trazado 924" d="M29.23,17.759C27.989,9.578,20.4-5.074,0,1.769,4.294,14.789,11.355,17.662,29.23,17.759Z" transform="translate(13.083 31.301)" fill="#77bc3d"/>
      <path id="Trazado_925-4" data-name="Trazado 925" d="M29.23,17.759C27.989,9.578,20.4-5.073,0,1.769,4.294,14.79,11.355,17.663,29.23,17.759Z" transform="translate(0 8.267)" fill="#77bc3d"/>
      <path id="Trazado_926-4" data-name="Trazado 926" d="M4.34,29.223C-.249,23.221-5.126,8.974,12.075,0,17.933,11.065,15.416,17.5,4.34,29.223Z" transform="translate(44.088 23.232)" fill="#77bc3d"/>
      <path id="Trazado_927-4" data-name="Trazado 927" d="M4.339,29.222C-.249,23.221-5.126,8.974,12.074,0,17.932,11.065,15.415,17.5,4.339,29.222Z" transform="translate(33.651 0)" fill="#77bc3d"/>
      <path id="Trazado_928-4" data-name="Trazado 928" d="M0,8.616c21.185,8.349,26.8,20.977,37.764,40.93C26.865,29.713,24.477,20.52,32.962,0" transform="translate(10.079 5.23)" fill="none" stroke="#367700" stroke-linecap="round" stroke-linejoin="round" stroke-width="1"/>
      <path id="Trazado_929-4" data-name="Trazado 929" d="M0,7.373c12.634,2.128,19.612,8.536,28.342,18.6C29.728,20.212,30.926,8.114,34.672,0" transform="translate(19.501 28.805)" fill="none" stroke="#367700" stroke-linecap="round" stroke-linejoin="round" stroke-width="1"/>
    </g>
    <g id="Grupo_391" data-name="Grupo 391" transform="translate(203.145 71.934) rotate(159)">
      <path id="Trazado_924-5" data-name="Trazado 924" d="M29.23,17.759C27.989,9.578,20.4-5.074,0,1.769,4.294,14.789,11.355,17.662,29.23,17.759Z" transform="translate(13.083 31.301)" fill="#77bc3d"/>
      <path id="Trazado_925-5" data-name="Trazado 925" d="M29.23,17.759C27.989,9.578,20.4-5.073,0,1.769,4.294,14.79,11.355,17.663,29.23,17.759Z" transform="translate(0 8.267)" fill="#77bc3d"/>
      <path id="Trazado_926-5" data-name="Trazado 926" d="M4.34,29.223C-.249,23.221-5.126,8.974,12.075,0,17.933,11.065,15.416,17.5,4.34,29.223Z" transform="translate(44.088 23.232)" fill="#77bc3d"/>
      <path id="Trazado_927-5" data-name="Trazado 927" d="M4.339,29.222C-.249,23.221-5.126,8.974,12.074,0,17.932,11.065,15.415,17.5,4.339,29.222Z" transform="translate(33.651 0)" fill="#77bc3d"/>
      <path id="Trazado_928-5" data-name="Trazado 928" d="M0,8.616c21.185,8.349,26.8,20.977,37.764,40.93C26.865,29.713,24.477,20.52,32.962,0" transform="translate(10.079 5.23)" fill="none" stroke="#367700" stroke-linecap="round" stroke-linejoin="round" stroke-width="1"/>
      <path id="Trazado_929-5" data-name="Trazado 929" d="M0,7.373c12.634,2.128,19.612,8.536,28.342,18.6C29.728,20.212,30.926,8.114,34.672,0" transform="translate(19.501 28.805)" fill="none" stroke="#367700" stroke-linecap="round" stroke-linejoin="round" stroke-width="1"/>
    </g>
    <g id="Grupo_390" data-name="Grupo 390" transform="translate(-29.713 86.88) rotate(-138)">
      <path id="Trazado_924-6" data-name="Trazado 924" d="M14.877,9.3C14,4.054,14.355-3.015,0,1.375,3.021,9.726,2.3,9.24,14.877,9.3Z" transform="translate(0 34.558)" fill="#77bc3d"/>
      <path id="Trazado_925-6" data-name="Trazado 925" d="M11.153,6.786C10.68,3.66,7.786-1.939,0,.676,1.638,5.652,4.333,6.749,11.153,6.786Z" transform="translate(5.56 27.109) rotate(-11)" fill="#77bc3d"/>
      <path id="Trazado_926-6" data-name="Trazado 926" d="M4.34,29.223C-.249,23.221-5.126,8.974,12.075,0,17.933,11.065,15.416,17.5,4.34,29.223Z" transform="translate(22.922 23.232)" fill="#77bc3d"/>
      <path id="Trazado_927-6" data-name="Trazado 927" d="M4.339,29.222C-.249,23.221-5.126,8.974,12.074,0,17.932,11.065,15.415,17.5,4.339,29.222Z" transform="translate(12.485)" fill="#77bc3d"/>
      <path id="Trazado_928-6" data-name="Trazado 928" d="M0,23.3c21.185,8.349,5.575,6.3,16.54,26.25C5.641,29.713,3.253,20.52,11.738,0" transform="translate(10.137 5.23)" fill="none" stroke="#367700" stroke-linecap="round" stroke-linejoin="round" stroke-width="1"/>
      <path id="Trazado_929-6" data-name="Trazado 929" d="M0,9.69c12.634,2.128,14.533,6.219,23.263,16.281C24.649,20.212,25.847,8.114,29.593,0" transform="translate(3.414 28.805)" fill="none" stroke="#367700" stroke-linecap="round" stroke-linejoin="round" stroke-width="1"/>
    </g>
    <path id="Trazado_935" data-name="Trazado 935" d="M299.14,137c-.446,3.854-7.7,13.346-22.8,21.583-7.047,3.844-16.729,7.923-29.4,11.68-6.865,2.035-12.85,4.057-18.335,6.137-31,11.758-69.622,21.3-69.622,21.3" transform="matrix(0.602, 0.799, -0.799, 0.602, -124.53, -250.802)" fill="none" stroke="#3e8d31" stroke-width="5"/>
    <g id="Grupo_392" data-name="Grupo 392" transform="matrix(-0.407, 0.914, -0.914, -0.407, -71.264, 4.548)">
      <path id="Trazado_924-7" data-name="Trazado 924" d="M29.23,17.759C27.989,9.578,20.4-5.074,0,1.769,4.294,14.789,11.355,17.662,29.23,17.759Z" transform="translate(13.083 31.301)" fill="#77bc3d"/>
      <path id="Trazado_925-7" data-name="Trazado 925" d="M29.23,17.759C27.989,9.578,20.4-5.073,0,1.769,4.294,14.79,11.355,17.663,29.23,17.759Z" transform="translate(0 8.267)" fill="#77bc3d"/>
      <path id="Trazado_926-7" data-name="Trazado 926" d="M4.34,29.223C-.249,23.221-5.126,8.974,12.075,0,17.933,11.065,15.416,17.5,4.34,29.223Z" transform="translate(44.088 23.232)" fill="#77bc3d"/>
      <path id="Trazado_927-7" data-name="Trazado 927" d="M4.339,29.222C-.249,23.221-5.126,8.974,12.074,0,17.932,11.065,15.415,17.5,4.339,29.222Z" transform="translate(33.651 0)" fill="#77bc3d"/>
      <path id="Trazado_928-7" data-name="Trazado 928" d="M0,8.616c21.185,8.349,26.8,20.977,37.764,40.93C26.865,29.713,24.477,20.52,32.962,0" transform="translate(10.079 5.23)" fill="none" stroke="#367700" stroke-linecap="round" stroke-linejoin="round" stroke-width="1"/>
      <path id="Trazado_929-7" data-name="Trazado 929" d="M0,7.373c12.634,2.128,19.612,8.536,28.342,18.6C29.728,20.212,30.926,8.114,34.672,0" transform="translate(19.501 28.805)" fill="none" stroke="#367700" stroke-linecap="round" stroke-linejoin="round" stroke-width="1"/>
    </g>
    <g id="Grupo_393" data-name="Grupo 393" transform="matrix(0.755, -0.656, 0.656, 0.755, -42.595, -4.392)">
      <path id="Trazado_924-8" data-name="Trazado 924" d="M14.877,9.3C14,4.054,14.355-3.015,0,1.375,3.021,9.726,2.3,9.24,14.877,9.3Z" transform="translate(0 34.558)" fill="#77bc3d"/>
      <path id="Trazado_925-8" data-name="Trazado 925" d="M11.153,6.786C10.68,3.66,7.786-1.939,0,.676,1.638,5.652,4.333,6.749,11.153,6.786Z" transform="translate(5.56 27.109) rotate(-11)" fill="#77bc3d"/>
      <path id="Trazado_926-8" data-name="Trazado 926" d="M4.34,29.223C-.249,23.221-5.126,8.974,12.075,0,17.933,11.065,15.416,17.5,4.34,29.223Z" transform="translate(22.922 23.232)" fill="#77bc3d"/>
      <path id="Trazado_927-8" data-name="Trazado 927" d="M4.339,29.222C-.249,23.221-5.126,8.974,12.074,0,17.932,11.065,15.415,17.5,4.339,29.222Z" transform="translate(12.485 0)" fill="#77bc3d"/>
      <path id="Trazado_928-8" data-name="Trazado 928" d="M0,23.3c21.185,8.349,5.575,6.3,16.54,26.25C5.641,29.713,3.253,20.52,11.738,0" transform="translate(10.137 5.23)" fill="none" stroke="#367700" stroke-linecap="round" stroke-linejoin="round" stroke-width="1"/>
      <path id="Trazado_929-8" data-name="Trazado 929" d="M0,9.69c12.634,2.128,14.533,6.219,23.263,16.281C24.649,20.212,25.847,8.114,29.593,0" transform="translate(3.414 28.805)" fill="none" stroke="#367700" stroke-linecap="round" stroke-linejoin="round" stroke-width="1"/>
    </g>
    <g id="Grupo_394" data-name="Grupo 394" transform="translate(255.203 -17.35) rotate(73)">
      <path id="Trazado_924-9" data-name="Trazado 924" d="M29.23,17.759C27.989,9.578,20.4-5.074,0,1.769,4.294,14.789,11.355,17.662,29.23,17.759Z" transform="translate(13.083 31.301)" fill="#77bc3d"/>
      <path id="Trazado_925-9" data-name="Trazado 925" d="M29.23,17.759C27.989,9.578,20.4-5.073,0,1.769,4.294,14.79,11.355,17.663,29.23,17.759Z" transform="translate(0 8.267)" fill="#77bc3d"/>
      <path id="Trazado_926-9" data-name="Trazado 926" d="M4.34,29.223C-.249,23.221-5.126,8.974,12.075,0,17.933,11.065,15.416,17.5,4.34,29.223Z" transform="translate(44.088 23.232)" fill="#77bc3d"/>
      <path id="Trazado_927-9" data-name="Trazado 927" d="M4.339,29.222C-.249,23.221-5.126,8.974,12.074,0,17.932,11.065,15.415,17.5,4.339,29.222Z" transform="translate(33.651 0)" fill="#77bc3d"/>
      <path id="Trazado_928-9" data-name="Trazado 928" d="M0,8.616c21.185,8.349,26.8,20.977,37.764,40.93C26.865,29.713,24.477,20.52,32.962,0" transform="translate(10.079 5.23)" fill="none" stroke="#367700" stroke-linecap="round" stroke-linejoin="round" stroke-width="1"/>
      <path id="Trazado_929-9" data-name="Trazado 929" d="M0,7.373c12.634,2.128,19.612,8.536,28.342,18.6C29.728,20.212,30.926,8.114,34.672,0" transform="translate(19.501 28.805)" fill="none" stroke="#367700" stroke-linecap="round" stroke-linejoin="round" stroke-width="1"/>
    </g>
  </g>
</svg>
