<svg id="Grupo_200" data-name="Grupo 200" xmlns="http://www.w3.org/2000/svg" width="32" height="32" viewBox="0 0 32 32">
  <rect id="Rectángulo_84" data-name="Rectángulo 84" width="32" height="32" rx="6" transform="translate(0 0)" fill="#291c84"/>
  <path id="Icon_awesome-edit" data-name="Icon awesome-edit" d="M13.3,2.887l2.979,3.126a.351.351,0,0,1,0,.478L9.064,14.061,6,14.418a.659.659,0,0,1-.71-.745l.34-3.216,7.214-7.569A.312.312,0,0,1,13.3,2.887Zm5.351-.794L17.038.4a1.249,1.249,0,0,0-1.823,0L14.045,1.629a.351.351,0,0,0,0,.478l2.979,3.126a.312.312,0,0,0,.456,0L18.65,4.007a1.4,1.4,0,0,0,0-1.913ZM12.684,12v3.528H2.114V4.44H9.7a.4.4,0,0,0,.281-.121l1.321-1.386a.419.419,0,0,0-.281-.71H1.586A1.626,1.626,0,0,0,0,3.885v12.2a1.626,1.626,0,0,0,1.586,1.664H13.213A1.626,1.626,0,0,0,14.8,16.085V10.616a.4.4,0,0,0-.677-.295L12.8,11.708A.437.437,0,0,0,12.684,12Z" transform="translate(7.036 6.759)" fill="#fff"/>
</svg>
