<svg xmlns="http://www.w3.org/2000/svg" xmlns:xlink="http://www.w3.org/1999/xlink" width="279" height="255.112" viewBox="0 0 279 255.112">
  <defs>
    <filter id="Botanicare" x="0" y="107.112" width="279" height="148" filterUnits="userSpaceOnUse">
      <feOffset dx="4" dy="12" input="SourceAlpha"/>
      <feGaussianBlur stdDeviation="8" result="blur"/>
      <feFlood flood-opacity="0.161"/>
      <feComposite operator="in" in2="blur"/>
      <feComposite in="SourceGraphic"/>
    </filter>
  </defs>
  <g id="Icono" transform="translate(-52.5 -281.388)">
    <path id="Trazado_812" data-name="Trazado 812" d="M20.712,77.593C-10.452,44.162,3.089.193,3.089.193S14.981-1.086,34.076,3.975c6.09,3.136,14.693,5.958,22.3,14.115C67.143,28.326,72.191,43.338,71.887,60.076s6.44,34.055,6.44,34.055S41.056,99.417,20.712,77.593Z" transform="matrix(-0.616, -0.788, 0.788, -0.616, 164.433, 401.409)" fill="#649b35"/>
    <path id="Trazado_800" data-name="Trazado 800" d="M243.679,228.182c-17.664,13.291-59.413,8.51-59.413,8.51s-11.7-59.06,29.973-73c30.12-7.844,45.292-16.559,45.292-16.559S269.722,214.019,243.679,228.182Z" transform="translate(-22.587 163.016)" fill="#66b821"/>
    <path id="Trazado_921" data-name="Trazado 921" d="M230.813,200.549c-48.556,20.253-45.3,36.616-45.3,36.616s-12.291-64.855,31.825-75.306c30.088-8.713,43.192-15.718,43.192-15.718S262.428,190.751,230.813,200.549Z" transform="translate(-23.587 164.016)" fill="#90df70"/>
    <g transform="matrix(1, 0, 0, 1, 52.5, 281.39)" filter="url(#Botanicare)">
      <text id="Botanicare-2" data-name="Botanicare" transform="translate(24 191.11)" fill="#0d1904" stroke="#0d1904" stroke-width="1" font-size="84" font-family="FreestyleScript-Regular, Freestyle Script"><tspan x="0" y="0">Botanicare</tspan></text>
    </g>
  </g>
</svg>
