<svg xmlns="http://www.w3.org/2000/svg" width="480.493" height="289.441" viewBox="0 0 480.493 289.441">
  <g id="Modificar_Botanicare" transform="translate(105.484 147.521)">
    <g id="Grupo_358" data-name="Grupo 358" transform="translate(293.653 -239.66) rotate(69)">
      <path id="Trazado_924" data-name="Trazado 924" d="M285.369,175.363c-1.241-8.181-8.825-22.833-29.23-15.99C260.433,172.393,267.494,175.266,285.369,175.363Z" transform="translate(-31 -107)" fill="#77bc3d"/>
      <path id="Trazado_925" data-name="Trazado 925" d="M272.286,152.329c-1.241-8.181-8.825-22.832-29.23-15.99C247.35,149.36,254.411,152.233,272.286,152.329Z" transform="translate(-31 -107)" fill="#77bc3d"/>
      <path id="Trazado_926" data-name="Trazado 926" d="M291.484,178.758c-4.589-6-9.466-20.249,7.735-29.223C305.077,160.6,302.56,167.031,291.484,178.758Z" transform="translate(-31 -107)" fill="#77bc3d"/>
      <path id="Trazado_927" data-name="Trazado 927" d="M281.046,155.525c-4.588-6-9.465-20.248,7.735-29.222C294.639,137.368,292.122,143.8,281.046,155.525Z" transform="translate(-31 -107)" fill="#77bc3d"/>
      <path id="Trazado_928" data-name="Trazado 928" d="M253.135,140.149c21.185,8.349,26.8,20.977,37.764,40.93-10.9-19.833-13.287-29.026-4.8-49.546" transform="translate(-31 -107)" fill="none" stroke="#367700" stroke-linecap="round" stroke-linejoin="round" stroke-width="1"/>
      <path id="Trazado_929" data-name="Trazado 929" d="M262.557,162.481c12.634,2.128,19.612,8.536,28.342,18.6,1.386-5.759,2.584-17.857,6.33-25.971" transform="translate(-31 -107)" fill="none" stroke="#367700" stroke-linecap="round" stroke-linejoin="round" stroke-width="1"/>
    </g>
    <path id="Trazado_787" data-name="Trazado 787" d="M233.416,154c-1.885,2.271-2.891,2.844-5.3,6.4-13.522,19.948-32.891,62.012-29.828,125.5" transform="translate(92.453 235.135) rotate(-91)" fill="none" stroke="#3e8d31" stroke-width="5"/>
    <path id="Trazado_771" data-name="Trazado 771" d="M234,140.5c-.223,6.365-2.751,19.1-10.3,32.709A84.541,84.541,0,0,1,209,192.5c-24,23.5-26.5,46-26.5,50" transform="translate(60 -142)" fill="none" stroke="#3e8d31" stroke-width="5"/>
    <g id="Grupo_376" data-name="Grupo 376" transform="translate(541.561 144.638) rotate(-170)">
      <path id="Trazado_924-2" data-name="Trazado 924" d="M285.369,175.363c-1.241-8.181-8.825-22.833-29.23-15.99C260.433,172.393,267.494,175.266,285.369,175.363Z" transform="translate(-31 -107)" fill="#77bc3d"/>
      <path id="Trazado_925-2" data-name="Trazado 925" d="M272.286,152.329c-1.241-8.181-8.825-22.832-29.23-15.99C247.35,149.36,254.411,152.233,272.286,152.329Z" transform="translate(-31 -107)" fill="#77bc3d"/>
      <path id="Trazado_926-2" data-name="Trazado 926" d="M291.484,178.758c-4.589-6-9.466-20.249,7.735-29.223C305.077,160.6,302.56,167.031,291.484,178.758Z" transform="translate(-31 -107)" fill="#77bc3d"/>
      <path id="Trazado_927-2" data-name="Trazado 927" d="M281.046,155.525c-4.588-6-9.465-20.248,7.735-29.222C294.639,137.368,292.122,143.8,281.046,155.525Z" transform="translate(-31 -107)" fill="#77bc3d"/>
      <path id="Trazado_928-2" data-name="Trazado 928" d="M253.135,140.149c21.185,8.349,26.8,20.977,37.764,40.93-10.9-19.833-13.287-29.026-4.8-49.546" transform="translate(-31 -107)" fill="none" stroke="#367700" stroke-linecap="round" stroke-linejoin="round" stroke-width="1"/>
      <path id="Trazado_929-2" data-name="Trazado 929" d="M262.557,162.481c12.634,2.128,19.612,8.536,28.342,18.6,1.386-5.759,2.584-17.857,6.33-25.971" transform="translate(-31 -107)" fill="none" stroke="#367700" stroke-linecap="round" stroke-linejoin="round" stroke-width="1"/>
    </g>
    <g id="Grupo_377" data-name="Grupo 377" transform="translate(-3.091 63.698) rotate(-17)">
      <path id="Trazado_924-3" data-name="Trazado 924" d="M285.369,175.363c-1.241-8.181-8.825-22.833-29.23-15.99C260.433,172.393,267.494,175.266,285.369,175.363Z" transform="translate(-31 -107)" fill="#77bc3d"/>
      <path id="Trazado_925-3" data-name="Trazado 925" d="M272.286,152.329c-1.241-8.181-8.825-22.832-29.23-15.99C247.35,149.36,254.411,152.233,272.286,152.329Z" transform="translate(-31 -107)" fill="#77bc3d"/>
      <path id="Trazado_926-3" data-name="Trazado 926" d="M291.484,178.758c-4.589-6-9.466-20.249,7.735-29.223C305.077,160.6,302.56,167.031,291.484,178.758Z" transform="translate(-31 -107)" fill="#77bc3d"/>
      <path id="Trazado_927-3" data-name="Trazado 927" d="M281.046,155.525c-4.588-6-9.465-20.248,7.735-29.222C294.639,137.368,292.122,143.8,281.046,155.525Z" transform="translate(-31 -107)" fill="#77bc3d"/>
      <path id="Trazado_928-3" data-name="Trazado 928" d="M253.135,140.149c21.185,8.349,26.8,20.977,37.764,40.93-10.9-19.833-13.287-29.026-4.8-49.546" transform="translate(-31 -107)" fill="none" stroke="#367700" stroke-linecap="round" stroke-linejoin="round" stroke-width="1"/>
      <path id="Trazado_929-3" data-name="Trazado 929" d="M262.557,162.481c12.634,2.128,19.612,8.536,28.342,18.6,1.386-5.759,2.584-17.857,6.33-25.971" transform="translate(-31 -107)" fill="none" stroke="#367700" stroke-linecap="round" stroke-linejoin="round" stroke-width="1"/>
    </g>
    <path id="Intersección_2" data-name="Intersección 2" d="M2737.5-952.426V-1133.5h314v144.56c-21.726,19.892-63.091,23.328-127.195,7.513-66.672-16.449-100.025,41.468-142.795,45.58-2.459.236-4.8.348-7.029.348C2754.826-935.5,2743.961-944.187,2737.5-952.426Z" transform="matrix(0.946, -0.326, 0.326, 0.946, -2324.81, 1917.696)" fill="rgba(119,188,61,0.74)"/>
  </g>
</svg>
