<svg xmlns="http://www.w3.org/2000/svg" width="338" height="183.567" viewBox="0 0 338 183.567">
  <g id="Parte_Inicial" transform="translate(-19 -96.758)">
    <path id="Trazado_835" data-name="Trazado 835" d="M218,123.5h97l-20,85H198Z" fill="#fff"/>
    <path id="Trazado_836" data-name="Trazado 836" d="M210.329,199.75l18.758-67.5h73.6L286.9,199.75Z" fill="#fff" stroke="#92ea68" stroke-width="0.5"/>
    <path id="Trazado_837" data-name="Trazado 837" d="M224,100h97l-6,23.5H218Z" fill="#77bc3d"/>
    <path id="Trazado_838" data-name="Trazado 838" d="M236.5,184c10.5-11.667,29.9-32.4,23.5-22-8,13-29.421,7.5-23.5,11.5s10.5,8,19,4c6.8-3.2,10.5-7,11.5-8.5" fill="none" stroke="#3383b0" stroke-width="1"/>
    <rect id="Rectángulo_152" data-name="Rectángulo 152" width="30" height="60.742" transform="translate(75 175)" fill="#0c364e"/>
    <path id="Trazado_839" data-name="Trazado 839" d="M193.7,233.057,187,226l44-57.5,11,7-28.985,54.9a12,12,0,0,1-19.311,2.662Z" fill="#ffdaa3"/>
    <rect id="Rectángulo_153" data-name="Rectángulo 153" width="19" height="15" transform="translate(101 145)" fill="#ffdaa3"/>
    <path id="Trazado_840" data-name="Trazado 840" d="M74.353,180.116A20,20,0,0,1,94.241,158h53.774A20,20,0,0,1,167.9,175.884L176,252H82Z" fill="#3383b0"/>
    <rect id="Rectángulo_154" data-name="Rectángulo 154" width="30" height="60.742" transform="translate(142.001 187.213) rotate(-45)" fill="#3383b0"/>
    <path id="Trazado_841" data-name="Trazado 841" d="M151,194l21.5,23.5,3.5,34h-3.5Z" fill="#0c364e"/>
    <path id="Trazado_842" data-name="Trazado 842" d="M96,152h30l4,6H96Z" fill="#0c364e"/>
    <path id="Trazado_843" data-name="Trazado 843" d="M233,150h53" fill="none" stroke="#9fec7b" stroke-width="1"/>
    <rect id="Rectángulo_155" data-name="Rectángulo 155" width="30.574" height="3.039" rx="1" transform="translate(224.844 141.714) rotate(30)" fill="#0c364e"/>
    <path id="Trazado_844" data-name="Trazado 844" d="M247.163,156.075a.051.051,0,0,1,.07-.019l4.6,2.653a.294.294,0,0,1,.107.4h0a.293.293,0,0,1-.4.108l-4.6-2.653a.052.052,0,0,1-.019-.071Z" fill="#0c364e"/>
    <path id="Trazado_845" data-name="Trazado 845" d="M233.08,159.252,230.5,170l10.5,6.5,6.084-3.911a3,3,0,0,0,1.241-1.629l1.693-5.419a4.994,4.994,0,0,0-.029-3.073L248,156.5l-1.39-4.169a2.149,2.149,0,0,0-3.331-1.04l-1.851,1.388a4.459,4.459,0,0,1-.92.532l-2.457,1.053a4.986,4.986,0,0,0-1.03.6l-2.08,1.559A5,5,0,0,0,233.08,159.252Z" fill="#ffdaa3"/>
    <path id="Trazado_846" data-name="Trazado 846" d="M235,141.5h53" fill="none" stroke="#9fec7b" stroke-width="1"/>
    <path id="Trazado_847" data-name="Trazado 847" d="M101,116h26l2.43,26.735a5,5,0,0,1-5.662,5.4L101,145Z" fill="#ffdaa3"/>
    <path id="Trazado_848" data-name="Trazado 848" d="M118.145,132.848,121,120l-21,13.5,1,11h8.92a1,1,0,0,0,.868-.5l2.664-4.663a3.105,3.105,0,0,0-.271-3.482,3.1,3.1,0,0,1-.681-1.941V129a2,2,0,0,1,4,0v3.668a.832.832,0,0,0,1.645.18Z" fill="#0c364e"/>
    <path id="Trazado_849" data-name="Trazado 849" d="M92.78,120.877a9.5,9.5,0,0,1,4.249-11.271l14.224-8.212a9.5,9.5,0,0,1,11.886,1.956l4.956,5.64-32.909,19Z" fill="#f4c240"/>
    <path id="Trazado_850" data-name="Trazado 850" d="M76,136.758l69.282-40,2.25,3.9a4.5,4.5,0,0,1-1.647,6.148L84.4,142.3a4.5,4.5,0,0,1-6.147-1.648Z" fill="#f5d47e"/>
    <path id="Trazado_851" data-name="Trazado 851" d="M132,133l-4.5-8v8Z" fill="#ffdaa3"/>
    <path id="Trazado_852" data-name="Trazado 852" d="M298.75,253.049,315.731,211.6l-.462-.19L298.25,252.951Z" fill="#2b7807" fill-rule="evenodd"/>
    <path id="Trazado_853" data-name="Trazado 853" d="M321,196.5,314.5,213h10l9.5-6.5,17.5,13L357,205l-1.5-15L328,191Z" fill="rgba(119,188,61,0.6)"/>
    <path id="Trazado_854" data-name="Trazado 854" d="M328,191l6,15.5-9.5,6.5h-10l6.5-16.5Z" fill="#77bc3d"/>
    <path id="Trazado_855" data-name="Trazado 855" d="M301.5,216.5l4.5,17-3.5,8.5-8-6-5-5.5L278,238l-6-14.5,7.5-7Z" fill="rgba(119,188,61,0.6)"/>
    <path id="Trazado_856" data-name="Trazado 856" d="M301.5,216.5l-12,14,5,5.5,8.5,6,3-8.5Z" fill="#77bc3d"/>
    <path id="Trazado_857" data-name="Trazado 857" d="M297.618,274.627l-17.052-22.4.25-.19,17.09,22.453Z" fill="#2b7807" fill-rule="evenodd"/>
    <path id="Trazado_858" data-name="Trazado 858" d="M274.912,243.917l6.63,8.959-6.071,1.627-6.824-2.4-8.509,10.739-5.7-7.908-1.529-9.35,16.857-3.867Z" fill="rgba(119,188,61,0.6)"/>
    <path id="Trazado_859" data-name="Trazado 859" d="M269.768,241.716,268.647,252.1l6.824,2.4,6.071-1.627-6.63-8.959Z" fill="#77bc3d"/>
    <path id="Trazado_860" data-name="Trazado 860" d="M290,252.886l.033,11.053,3.507,4.59,3.881-4.943,2.141-4.153,8.2,2.683,1.284-9.779-5.692-3.029Z" fill="rgba(119,188,61,0.6)"/>
    <path id="Trazado_861" data-name="Trazado 861" d="M290,252.886l9.562,6.547-2.141,4.153-4.184,5.025-3.2-4.672Z" fill="#77bc3d"/>
    <path id="Trazado_862" data-name="Trazado 862" d="M84.982,231.606c-6.789,1.543-10.03,9.129-10.8,12.73,5.143.514,16.279.077,19.674-5.787s15.431-3.857,23.146-4.629c-.129-1.414-1.852-3.24-7.715-6.943C101.955,222.347,93.469,229.677,84.982,231.606Z" fill="#92ea68"/>
    <path id="Trazado_863" data-name="Trazado 863" d="M68.231,252.978c-.049.28,0,.408.047.458l-.273.273a.884.884,0,0,1-.154-.8,4.587,4.587,0,0,1,.42-1.158,19.762,19.762,0,0,1,2.237-3.36,50.394,50.394,0,0,1,9.364-8.852c8.14-5.992,19.737-11.034,32.543-8.123l-.086.376c-12.654-2.876-24.137,2.1-32.228,8.057a50,50,0,0,0-9.29,8.782,19.38,19.38,0,0,0-2.192,3.29A4.223,4.223,0,0,0,68.231,252.978Z" fill="#5f3b06" fill-rule="evenodd"/>
    <path id="Trazado_864" data-name="Trazado 864" d="M49.106,197.273c-7.407-6.789-18.259-3.857-22.76-1.543,0,13.5,21.6,20.06,22.76,27,.926,5.555,11.187,15.173,16.2,19.288.771-.771,2.16-4.166,1.543-11.573-.771-9.258-2.314-11.187-6.172-14.658S58.364,205.76,49.106,197.273Z" fill="#92ea68"/>
    <path id="Trazado_865" data-name="Trazado 865" d="M66.364,247.224a95.04,95.04,0,0,0,5.715,16.1l.345-.172a94.687,94.687,0,0,1-5.689-16.034q-.438-1.539-.877-3.106c-1.387-4.935-2.819-10.031-4.612-14.941C56.9,217.17,50.41,206.3,37.216,201.336l-.136.361c13.037,4.908,19.471,15.644,23.8,27.506,1.788,4.9,3.215,9.974,4.6,14.909Q65.926,245.679,66.364,247.224Z" fill="#5f3b06" fill-rule="evenodd"/>
    <path id="Trazado_866" data-name="Trazado 866" d="M37.919,235.078c10.493-3.087,17.231,4.886,19.288,9.258,0,1.8-1.62,4.937-8.1,3.086-8.1-2.315-29.7,4.629-30.089-3.086S24.8,238.935,37.919,235.078Z" fill="#65d82f"/>
    <path id="Trazado_867" data-name="Trazado 867" d="M30.159,241.08c19.532-4.65,33.465,5.553,38,11.255l-.3.24c-4.466-5.614-18.256-15.728-37.609-11.12Z" fill="#5f3b06" fill-rule="evenodd"/>
    <path id="Trazado_868" data-name="Trazado 868" d="M75.41,206.545c-12.653,10.8-7.844,26.875-3.858,33.562,3.729-3.987,11.881-14.5,14.659-24.689,3.472-12.73,35.1-25.846,22.374-31.247S91.227,193.044,75.41,206.545Z" fill="#92ea68"/>
    <path id="Trazado_869" data-name="Trazado 869" d="M69.652,247.577a16.746,16.746,0,0,1-1.476,4.184l-.335-.191a16.4,16.4,0,0,0,1.436-4.085c.418-1.711.8-3.735,1.224-6l0-.014a125.352,125.352,0,0,1,3.734-15.759c3.723-11.556,10.788-24.333,26.465-33.236l.19.336c-15.569,8.842-22.585,21.525-26.288,33.018a125.048,125.048,0,0,0-3.724,15.719v.008C70.456,243.818,70.073,245.854,69.652,247.577Z" fill="#5f3b06" fill-rule="evenodd"/>
    <path id="Trazado_870" data-name="Trazado 870" d="M143.943,253.027c-6.957-.267-12.051,6.223-13.728,9.5,4.835,1.828,15.7,4.288,20.5-.5s15.9.268,23.555,1.519c.242-1.4-.95-3.609-5.655-8.7C162.734,248.477,152.64,253.36,143.943,253.027Z" fill="#92ea68"/>
    <path id="Trazado_871" data-name="Trazado 871" d="M122.231,269.336c-.12.257-.108.393-.073.454l-.334.193a.884.884,0,0,1,.057-.811,4.611,4.611,0,0,1,.706-1.01,19.787,19.787,0,0,1,3.03-2.666,50.343,50.343,0,0,1,11.336-6.127c9.413-3.681,21.92-5.55,33.536.576l-.18.341c-11.479-6.053-23.858-4.217-33.216-.558a50,50,0,0,0-11.247,6.078,19.428,19.428,0,0,0-2.969,2.61A4.239,4.239,0,0,0,122.231,269.336Z" fill="#5f3b06" fill-rule="evenodd"/>
    <path id="Trazado_872" data-name="Trazado 872" d="M118.176,210.579c-5.4-8.475-16.639-8.452-21.585-7.381-3.494,13.041,15.674,24.967,15,31.973-.543,5.606,6.879,17.552,10.658,22.825.945-.546,3.165-3.466,4.486-10.779,1.651-9.143.659-11.4-2.168-15.757S124.922,221.173,118.176,210.579Z" fill="#92ea68"/>
    <path id="Trazado_873" data-name="Trazado 873" d="M121.918,263.294a95.017,95.017,0,0,0,1.353,17.031l.378-.077a94.66,94.66,0,0,1-1.346-16.96q-.024-1.6-.043-3.227c-.062-5.126-.126-10.419-.588-15.626-1.119-12.621-4.574-24.8-16.033-33.009l-.225.313c11.323,8.116,14.759,20.151,15.874,32.73.46,5.191.524,10.466.586,15.592Q121.9,261.688,121.918,263.294Z" fill="#5f3b06" fill-rule="evenodd"/>
    <path id="Trazado_874" data-name="Trazado 874" d="M97.585,244.2c10.934-.266,15.379,9.179,16.235,13.935-.466,1.738-2.843,4.35-8.624.884-7.226-4.333-29.889-3.217-28.265-10.769S83.918,244.531,97.585,244.2Z" fill="#92ea68"/>
    <path id="Trazado_875" data-name="Trazado 875" d="M88.536,247.989c20.07.563,30.888,14.025,33.793,20.706l-.354.154c-2.861-6.578-13.564-19.916-33.449-20.474Z" fill="#5f3b06" fill-rule="evenodd"/>
    <path id="Trazado_876" data-name="Trazado 876" d="M141.184,226.343c-15.018,7.159-14.532,23.929-12.413,31.419,4.634-2.885,15.231-10.935,20.55-20.053,6.648-11.4,40.6-15.88,29.7-24.391S159.956,217.4,141.184,226.343Z" fill="#9bec79"/>
    <path id="Trazado_877" data-name="Trazado 877" d="M125,264.486a16.757,16.757,0,0,1-2.509,3.66l-.274-.272a16.4,16.4,0,0,0,2.445-3.573c.847-1.545,1.738-3.4,2.735-5.479l.006-.013a125.374,125.374,0,0,1,7.686-14.256c6.587-10.2,16.717-20.711,34.165-25.253l.1.373c-17.327,4.511-27.387,14.946-33.938,25.09a124.974,124.974,0,0,0-7.665,14.219l0,.007C126.751,261.064,125.855,262.931,125,264.486Z" fill="#5f3b06" fill-rule="evenodd"/>
  </g>
</svg>
