<svg xmlns="http://www.w3.org/2000/svg" width="144.5" height="174" viewBox="0 0 144.5 174">
  <g id="Planta" transform="translate(-116 -159)">
    <path id="Trazado_530" data-name="Trazado 530" d="M219,327c0,3.314-16.789,6-37.5,6s-37.5-2.686-37.5-6,16.789-6,37.5-6S219,323.686,219,327Z" fill="#dfeed8"/>
    <path id="Trazado_531" data-name="Trazado 531" d="M146.7,278.226c-.33-15.182,9.388-29.67,25.134-29.67H213.6c15.746,0,25.464,14.488,25.134,29.67-.165,7.6-6.816,16.353-10.913,21.038a7.607,7.607,0,0,0-1.493,7.7l3.282,8.524A7,7,0,0,1,223.079,325H162.358a7,7,0,0,1-6.532-9.515l3.281-8.524a7.607,7.607,0,0,0-1.493-7.7C153.517,294.579,146.866,285.827,146.7,278.226Z" fill="#dc9f43"/>
    <path id="Trazado_532" data-name="Trazado 532" d="M158,324h69v3H158Z" fill="#b9802b"/>
    <path id="Trazado_533" data-name="Trazado 533" d="M165.963,247.281h53.511v2.549H165.963Z" fill="#b9802b"/>
    <path id="Trazado_534" data-name="Trazado 534" d="M202.25,222.049,219.231,180.6l-.462-.19L201.75,221.951V248h.5Z" fill="#2b7807" fill-rule="evenodd"/>
    <path id="Trazado_535" data-name="Trazado 535" d="M156.573,188.761,181.2,196.3l13.555,39.66V248.5h-.5V236.042L180.8,196.7l-24.378-7.463Z" fill="#2b7807" fill-rule="evenodd"/>
    <path id="Trazado_536" data-name="Trazado 536" d="M224.5,165.5,218,182h10l9.5-6.5,17.5,13,5.5-14.5L259,159l-27.5,1Z" fill="#92ea68"/>
    <path id="Trazado_537" data-name="Trazado 537" d="M231.5,160l6,15.5L228,182H218l6.5-16.5Z" fill="#52c51c"/>
    <path id="Trazado_538" data-name="Trazado 538" d="M172.5,235.5l4.5,10.432h-7.765l-7.376-5.068L148.271,251,144,239.7l1.165-11.7,21.353.78Z" fill="#92ea68"/>
    <path id="Trazado_539" data-name="Trazado 539" d="M166.615,229,162,240.977,169.308,246H177l-4-9.5Z" fill="#52c51c"/>
    <path id="Trazado_540" data-name="Trazado 540" d="M205,185.5l4.5,17L206,211l-8-6-5-5.5L181.5,207l-6-14.5,7.5-7Z" fill="#92ea68"/>
    <path id="Trazado_541" data-name="Trazado 541" d="M205,185.5l-12,14,5,5.5,8.5,6,3-8.5Z" fill="#52c51c"/>
    <path id="Trazado_542" data-name="Trazado 542" d="M215.5,205l-8.5,5.5-4,9.5h6l10.5-5.5L232,225l8-12-5.5-8Z" fill="#92ea68"/>
    <path id="Trazado_543" data-name="Trazado 543" d="M215.5,205l4,9.5L209,220h-6l3.5-9.5Z" fill="#52c51c"/>
    <path id="Trazado_544" data-name="Trazado 544" d="M163.554,205,172,210.25v5.25h-4.054l-7.1-3.85L152.4,219l-5.4-8.4,3.716-5.6Z" fill="#92ea68"/>
    <path id="Trazado_545" data-name="Trazado 545" d="M163.667,205,161,211.333,168,215h4v-5Z" fill="#52c51c"/>
    <path id="Trazado_546" data-name="Trazado 546" d="M147,186l17.5,5-7,8H144l-3,7-12.5,11L116,202.5l3.5-9,9-7.5Z" fill="#92ea68"/>
    <path id="Trazado_547" data-name="Trazado 547" d="M147.5,186,144,199h13.5l7-8Z" fill="#52c51c"/>
    <path id="Trazado_548" data-name="Trazado 548" d="M172.25,234.447V212.5h-.5v22.053l6.022,13.549.456-.2Z" fill="#2b7807" fill-rule="evenodd"/>
    <path id="Trazado_549" data-name="Trazado 549" d="M167,177l-2,14.5,6,2,6-10.5,6-4,11,4,4-7.5-1-7.5H178.5Z" fill="#92ea68"/>
    <path id="Trazado_550" data-name="Trazado 550" d="M178.5,168l4.5,11-6,4-6,10.5-6-2,2-14.5Z" fill="#52c51c"/>
    <path id="Trazado_551" data-name="Trazado 551" d="M203.7,232.412,202,244.353V246.5l10.182-9.147,5.091-3.294,9.333,3.294L230,231.176,229.152,225h-15.7Z" fill="#92ea68"/>
    <path id="Trazado_552" data-name="Trazado 552" d="M213.25,225l3.75,9.059-5,3.294L202,247v-6.5l1.667-8.088Z" fill="#52c51c"/>
    <path id="Trazado_553" data-name="Trazado 553" d="M181,216l10.5,11.5L194,235l-8.5-2.5L181,225l-10,7.5-8-9.5,1-7Z" fill="#92ea68"/>
    <path id="Trazado_554" data-name="Trazado 554" d="M181,225v-9l10.5,11.5L194,235l-9-3Z" fill="#52c51c"/>
    <path id="Trazado_565" data-name="Trazado 565" d="M158.3,323.711a7,7,0,0,1-2.476-8.226l3.281-8.524a7.567,7.567,0,0,0-1.152-7.281l.045-.18,8.2,10.429a5,5,0,0,1-.48,6.706Z" fill="#784c0a" fill-rule="evenodd"/>
  </g>
</svg>
