<svg xmlns="http://www.w3.org/2000/svg" width="349.461" height="203.31" viewBox="0 0 349.461 203.31">
  <g id="Group_343" data-name="Group 343" transform="translate(-12.539 -87.008)">
    <path id="Trazado_756" data-name="Trazado 756" d="M178,149a60,60,0,0,1,60-60h0a60,60,0,0,1,60,60V281H178Z" fill="#5f3b06"/>
    <path id="Trazado_757" data-name="Trazado 757" d="M184,150a54,54,0,0,1,54-54h0a54,54,0,0,1,54,54V276a5,5,0,0,1-5,5H189a5,5,0,0,1-5-5Z" fill="#fff"/>
    <path id="Trazado_758" data-name="Trazado 758" d="M268.713,105.579c4.56,15.938,5.754,38-7.213,58.421-15.118,23.8-8.3,46.778-3.113,64.266,2.877,9.7,5.253,17.7,3.113,23.234-2.4,6.2-7.282,9.762-11.923,13.146-5.725,4.176-11.084,8.084-10.967,16.354H287a5,5,0,0,0,5-5V150A53.94,53.94,0,0,0,268.713,105.579Z" fill="#dfffd0" fill-rule="evenodd"/>
    <path id="Trazado_759" data-name="Trazado 759" d="M270.5,107.5c-1.833,14.333-11.8,42-37,38-19.041-3.022-25.476,8.389-30.459,17.225-3.261,5.782-5.9,10.462-11.041,9.275-3.471-.8-6.073-3.815-8-7.879V150a54.007,54.007,0,0,1,85.13-44.13Z" fill="#3e8d31" fill-rule="evenodd"/>
    <path id="Trazado_760" data-name="Trazado 760" d="M268.713,105.579c4.56,15.938,5.754,38-7.213,58.421-15.118,23.8-8.3,46.778-3.113,64.266,2.877,9.7,5.253,17.7,3.113,23.234-2.4,6.2-7.282,9.762-11.923,13.146-5.725,4.176-11.084,8.084-10.967,16.354H287a5,5,0,0,0,5-5V150A53.94,53.94,0,0,0,268.713,105.579Z" fill="#dfffd0" fill-rule="evenodd"/>
    <path id="Trazado_761" data-name="Trazado 761" d="M260.477,100.886C248.9,103.253,231.956,110.07,239.5,119.5c5.714,7.143-4.1,10.03-13.827,13.768-7.295,2.8-14.173,0-17.673,10.732-3.6,11.026-14.044,17.812-24,17.492V150a54.026,54.026,0,0,1,76.477-49.114Z" fill="#6fe139" fill-rule="evenodd"/>
    <path id="Trazado_762" data-name="Trazado 762" d="M248.5,281H287a5,5,0,0,0,5-5V154.82c-8.094,5.3-22.093,20.09-17,39.68,3.327,12.794-3.955,23.363-10.718,33.179C257.831,237.044,251.85,245.724,256,255,262.8,270.2,253.833,278.667,248.5,281Z" fill="#b6fdab" fill-rule="evenodd"/>
    <path id="Trazado_763" data-name="Trazado 763" d="M281.374,269.321c-3.537.8-5.225,4.757-5.627,6.632,2.679.268,8.48.04,10.249-3.014s8.038-2.01,12.058-2.412c-.067-.737-.965-1.688-4.02-3.617C290.216,264.5,285.8,268.317,281.374,269.321Z" fill="#6eda3b"/>
    <path id="Trazado_764" data-name="Trazado 764" d="M272.647,280.456c-.026.146,0,.212.025.238l-.142.142a.458.458,0,0,1-.081-.415,2.38,2.38,0,0,1,.219-.6,10.3,10.3,0,0,1,1.165-1.75,26.27,26.27,0,0,1,4.878-4.612c4.241-3.121,10.282-5.748,16.953-4.231l-.044.2c-6.592-1.5-12.574,1.1-16.79,4.2a26.085,26.085,0,0,0-4.84,4.575,10.142,10.142,0,0,0-1.142,1.714A2.223,2.223,0,0,0,272.647,280.456Z" fill="#5f3b06" fill-rule="evenodd"/>
    <path id="Trazado_765" data-name="Trazado 765" d="M262.684,251.436c-3.858-3.537-9.512-2.01-11.857-.8,0,7.034,11.254,10.45,11.857,14.067.482,2.894,5.828,7.9,8.441,10.049.4-.4,1.125-2.171.8-6.029-.4-4.824-1.205-5.828-3.215-7.637S267.507,255.857,262.684,251.436Z" fill="#6eda3b"/>
    <path id="Trazado_766" data-name="Trazado 766" d="M271.675,277.458a49.547,49.547,0,0,0,2.977,8.387l.18-.089a49.369,49.369,0,0,1-2.964-8.353q-.228-.8-.457-1.618c-.722-2.571-1.468-5.226-2.4-7.784-2.264-6.2-5.645-11.861-12.518-14.449l-.071.188c6.792,2.557,10.143,8.15,12.4,14.33.931,2.55,1.675,5.2,2.4,7.767Q271.446,276.653,271.675,277.458Z" fill="#5f3b06" fill-rule="evenodd"/>
    <path id="Trazado_767" data-name="Trazado 767" d="M256.856,271.13c5.466-1.608,8.977,2.546,10.048,4.823,0,.938-.844,2.573-4.22,1.608-4.22-1.206-15.474,2.412-15.675-1.608S250.023,273.14,256.856,271.13Z" fill="#6eda3b"/>
    <path id="Trazado_768" data-name="Trazado 768" d="M252.814,274.257c10.175-2.423,17.433,2.893,19.8,5.863l-.157.125c-2.327-2.924-9.511-8.193-19.593-5.792Z" fill="#5f3b06" fill-rule="evenodd"/>
    <path id="Trazado_769" data-name="Trazado 769" d="M276.387,256.266c-6.591,5.627-4.086,14-2.009,17.484,1.942-2.077,6.189-7.556,7.636-12.862,1.809-6.631,18.288-13.464,11.656-16.278S284.627,249.232,276.387,256.266Z" fill="#6eda3b"/>
    <path id="Trazado_770" data-name="Trazado 770" d="M273.388,277.642a8.745,8.745,0,0,1-.769,2.179l-.175-.1a8.539,8.539,0,0,0,.748-2.128c.218-.891.416-1.946.638-3.126v-.007a65.345,65.345,0,0,1,1.946-8.21,29.32,29.32,0,0,1,13.787-17.314l.1.174a29.124,29.124,0,0,0-13.7,17.2,65.256,65.256,0,0,0-1.94,8.189v0C273.806,275.684,273.607,276.744,273.388,277.642Z" fill="#5f3b06" fill-rule="evenodd"/>
    <path id="Trazado_771" data-name="Trazado 771" d="M234,140.5c-.333,9.5-5.8,33.2-25,52-24,23.5-26.5,46-26.5,50" fill="none" stroke="#3e8d31" stroke-width="5"/>
    <path id="Trazado_772" data-name="Trazado 772" d="M106,146.389a45.9,45.9,0,0,1,40.061-45.525h0A33.658,33.658,0,0,1,184,134.249V276.6a5,5,0,0,1-4.364,4.96l-68,8.717A5,5,0,0,1,106,285.318Z" fill="#5f3b06"/>
    <path id="Trazado_773" data-name="Trazado 773" d="M297.031,268.116c-3.466-1.072-6.9,1.506-8.19,2.93,2.187,1.572,7.325,4.275,10.384,2.514s7.966,2.279,11.648,3.94c.31-.671.009-1.944-1.672-5.142C307.1,268.36,301.362,269.456,297.031,268.116Z" fill="#92ea68"/>
    <path id="Trazado_774" data-name="Trazado 774" d="M283.906,273.395c-.1.113-.108.183-.1.219l-.194.052a.456.456,0,0,1,.138-.4,2.37,2.37,0,0,1,.491-.413,10.38,10.38,0,0,1,1.884-.934,26.258,26.258,0,0,1,6.531-1.554c5.233-.583,11.778.163,16.8,4.811l-.137.148c-4.96-4.594-11.437-5.339-16.639-4.76a26.07,26.07,0,0,0-6.479,1.542,10.261,10.261,0,0,0-1.846.913A2.193,2.193,0,0,0,283.906,273.395Z" fill="#5f3b06" fill-rule="evenodd"/>
    <path id="Trazado_775" data-name="Trazado 775" d="M289.788,243.281c-1.573-4.992-7.233-6.5-9.867-6.624-3.517,6.091,4.521,14.677,3.235,18.111-1.029,2.747,1.1,9.76,2.285,12.922.549-.147,2.06-1.317,3.711-4.819,2.064-4.378,1.87-5.65,1.034-8.221S291.754,249.522,289.788,243.281Z" fill="#92ea68"/>
    <path id="Trazado_776" data-name="Trazado 776" d="M284.563,270.313a49.522,49.522,0,0,0-1.616,8.752l.2.012a49.284,49.284,0,0,1,1.61-8.715c.135-.539.274-1.083.413-1.63.66-2.588,1.341-5.26,1.811-7.943,1.139-6.5,1.042-13.094-3.617-18.772l-.156.128c4.6,5.61,4.71,12.13,3.575,18.61-.468,2.674-1.147,5.337-1.807,7.925Q284.767,269.5,284.563,270.313Z" fill="#5f3b06" fill-rule="evenodd"/>
    <path id="Trazado_777" data-name="Trazado 777" d="M274.893,257.423c5.538,1.341,6.5,6.693,6.291,9.2-.469.812-2.017,1.8-4.459-.718-3.052-3.155-14.607-5.649-12.771-9.23S267.971,255.747,274.893,257.423Z" fill="#92ea68"/>
    <path id="Trazado_778" data-name="Trazado 778" d="M269.829,258.11c10.023,2.99,13.651,11.222,14.212,14.976l-.2.03c-.553-3.7-4.14-11.851-14.072-14.813Z" fill="#5f3b06" fill-rule="evenodd"/>
    <path id="Trazado_779" data-name="Trazado 779" d="M299.24,254.317c-8.522,1.577-10.539,10.081-10.482,14.136,2.72-.827,9.138-3.449,13.044-7.32,4.882-4.839,22.57-2.517,18.233-8.269S309.892,252.345,299.24,254.317Z" fill="#92ea68"/>
    <path id="Trazado_780" data-name="Trazado 780" d="M285.954,271.328a8.728,8.728,0,0,1-1.756,1.5l-.1-.174a8.57,8.57,0,0,0,1.712-1.468c.634-.663,1.333-1.478,2.115-2.389l0-.005a65.173,65.173,0,0,1,5.79-6.138,29.323,29.323,0,0,1,20.6-8.1l0,.2a29.125,29.125,0,0,0-20.461,8.049,65.264,65.264,0,0,0-5.774,6.122l0,0C287.3,269.842,286.593,270.661,285.954,271.328Z" fill="#5f3b06" fill-rule="evenodd"/>
    <path id="Trazado_781" data-name="Trazado 781" d="M172,131V276.5" fill="none" stroke="#b9802b" stroke-width="1"/>
    <path id="Trazado_782" data-name="Trazado 782" d="M176.4,277.963c3.1-1.1,8.665-4.456,9.88-10.576-4.451,2.23-6.857,4.127-8.882,7.632a14.049,14.049,0,0,0-1.649-11.279c-1.24,3.741-1.713,6.423-1.313,9.329a13.654,13.654,0,0,0-7.393-6.4c1.641,4.713,3.225,7.337,6.511,9.819-3.292-.887-7.91-1.142-11.89,1.505,4.654,1.515,7.684,1.874,11.516.883-3.261,2.126-5.081,4.48-6.953,8.8,2.722-.813,8.241-3.772,10.065-9.369l.092.055c-.011-.073-.024-.147-.038-.224C176.364,278.084,176.382,278.024,176.4,277.963Z" fill="#59c548" fill-rule="evenodd"/>
    <path id="Trazado_783" data-name="Trazado 783" d="M175.568,265.612c4.123-1.468,11.528-5.929,13.144-14.07-5.922,2.966-9.123,5.491-11.817,10.154,1.042-4.283,1.18-10.024-2.194-15.006-1.649,4.976-2.278,8.545-1.747,12.412a18.156,18.156,0,0,0-9.835-8.511c2.182,6.27,4.29,9.76,8.662,13.063-4.379-1.18-10.524-1.519-15.818,2,6.191,2.015,10.222,2.493,15.321,1.175-4.34,2.828-6.76,5.959-9.25,11.711,3.62-1.081,10.963-5.018,13.39-12.465l.123.073q-.024-.144-.051-.3C175.52,265.773,175.545,265.693,175.568,265.612Z" fill="#73df62" fill-rule="evenodd"/>
    <path id="Trazado_784" data-name="Trazado 784" d="M198.092,270.724c-4.3.79-12.948.629-18.419-5.614,6.612-.392,10.646.194,15.312,2.885-3.044-3.188-6.035-8.091-5.6-14.092,3.917,3.485,6.246,6.261,7.719,9.875a18.163,18.163,0,0,1,4.262-12.288c1.245,6.521,1.165,10.6-.97,15.644,3.2-3.211,8.355-6.577,14.7-6.175-4.354,4.841-7.606,7.27-12.681,8.678,5.172.28,8.834,1.781,13.867,5.517-3.676.874-12,1.136-17.829-4.1l-.07.124c-.035-.091-.069-.186-.1-.283C198.213,270.839,198.152,270.782,198.092,270.724Z" fill="#73df62" fill-rule="evenodd"/>
    <path id="Trazado_785" data-name="Trazado 785" d="M198.827,268.644c-1.672,5.752-4.231,7.824-8.67,11.844-5.751-7.276-9.418-11.3-15.292-16.338" fill="none" stroke="#93ff82" stroke-width="1"/>
    <path id="Trazado_786" data-name="Trazado 786" d="M175.083,277.1a26.785,26.785,0,0,0,15.016,3.175" fill="none" stroke="#73df62" stroke-width="1"/>
    <path id="Trazado_787" data-name="Trazado 787" d="M205.5,154c-3,5.667-8.8,23.5-8,49.5" fill="none" stroke="#3e8d31" stroke-width="5"/>
    <path id="Trazado_788" data-name="Trazado 788" d="M285.369,175.363c-1.241-8.181-8.825-22.833-29.23-15.99C260.433,172.393,267.494,175.266,285.369,175.363Z" fill="#73df62"/>
    <path id="Trazado_789" data-name="Trazado 789" d="M272.286,152.329c-1.241-8.181-8.825-22.832-29.23-15.99C247.35,149.36,254.411,152.233,272.286,152.329Z" fill="#73df62"/>
    <path id="Trazado_790" data-name="Trazado 790" d="M291.484,178.758c-4.589-6-9.466-20.249,7.735-29.223C305.077,160.6,302.56,167.031,291.484,178.758Z" fill="#73df62"/>
    <path id="Trazado_791" data-name="Trazado 791" d="M281.046,155.525c-4.588-6-9.465-20.248,7.735-29.222C294.639,137.368,292.122,143.8,281.046,155.525Z" fill="#73df62"/>
    <path id="Trazado_792" data-name="Trazado 792" d="M253.135,140.149c21.185,8.349,26.8,20.977,37.764,40.93-10.9-19.833-13.287-29.026-4.8-49.546" fill="none" stroke="#93ff82" stroke-linecap="round" stroke-linejoin="round" stroke-width="1"/>
    <path id="Trazado_793" data-name="Trazado 793" d="M262.557,162.481c12.634,2.128,19.612,8.536,28.342,18.6,1.386-5.759,2.584-17.857,6.33-25.971" fill="none" stroke="#93ff82" stroke-linecap="round" stroke-linejoin="round" stroke-width="1"/>
    <path id="Trazado_794" data-name="Trazado 794" d="M235.978,277.061c-.629-4.141-4.467-11.557-14.8-8.094C223.355,275.558,226.929,277.012,235.978,277.061Z" fill="#73df62"/>
    <path id="Trazado_795" data-name="Trazado 795" d="M229.355,265.4c-.628-4.141-4.467-11.558-14.8-8.094C216.733,263.9,220.307,265.353,229.355,265.4Z" fill="#73df62"/>
    <path id="Trazado_796" data-name="Trazado 796" d="M239.073,278.78c-2.323-3.038-4.791-10.25,3.915-14.793C245.954,269.589,244.68,272.844,239.073,278.78Z" fill="#73df62"/>
    <path id="Trazado_797" data-name="Trazado 797" d="M233.79,267.02c-2.323-3.038-4.792-10.25,3.915-14.793C240.67,257.829,239.4,261.084,233.79,267.02Z" fill="#73df62"/>
    <path id="Trazado_798" data-name="Trazado 798" d="M219.661,259.237c10.724,4.226,13.566,10.618,19.116,20.718-5.517-10.04-6.726-14.693-2.431-25.08" fill="none" stroke="#93ff82" stroke-linecap="round" stroke-linejoin="round" stroke-width="1"/>
    <path id="Trazado_799" data-name="Trazado 799" d="M224.43,270.54c6.4,1.078,9.928,4.322,14.347,9.415.7-2.916,1.308-9.039,3.2-13.146" fill="none" stroke="#93ff82" stroke-linecap="round" stroke-linejoin="round" stroke-width="1"/>
    <path id="Trazado_800" data-name="Trazado 800" d="M201.931,189.465a14.758,14.758,0,0,1-16.285-.843,14.758,14.758,0,0,1,7.413-14.524c5.813-3.357,15,1.586,15,1.586S207.745,186.108,201.931,189.465Z" fill="#6fe139"/>
    <path id="Trazado_801" data-name="Trazado 801" d="M184.352,189.176l16.585-9.575.29.5-16.585,9.575Z" fill="#2b7807" fill-rule="evenodd"/>
    <path id="Trazado_802" data-name="Trazado 802" d="M190.7,173.625a8.828,8.828,0,0,1-8.688,4.434,8.828,8.828,0,0,1-.5-9.741c2.008-3.478,8.244-3.664,8.244-3.664S192.71,170.147,190.7,173.625Z" fill="#6fe139"/>
    <path id="Trazado_803" data-name="Trazado 803" d="M181.509,178.733l5.728-9.921.3.174-5.728,9.92Z" fill="#2b7807" fill-rule="evenodd"/>
    <path id="Trazado_804" data-name="Trazado 804" d="M189.535,207.48a11.908,11.908,0,0,1-5.98-11.718,11.907,11.907,0,0,1,13.138-.68c4.689,2.708,4.941,11.118,4.941,11.118S194.225,210.187,189.535,207.48Z" fill="#6fe139"/>
    <path id="Trazado_805" data-name="Trazado 805" d="M182.646,195.081l13.379,7.725-.234.4-13.379-7.724Z" fill="#2b7807" fill-rule="evenodd"/>
    <path id="Trazado_806" data-name="Trazado 806" d="M208.75,203.976a11.906,11.906,0,0,1-8.809-9.771,11.906,11.906,0,0,1,12.514-4.056c5.231,1.4,7.651,9.459,7.651,9.459S213.981,205.377,208.75,203.976Z" fill="#6fe139"/>
    <path id="Trazado_807" data-name="Trazado 807" d="M198.888,193.783l14.922,4-.121.453-14.923-4Z" fill="#2b7807" fill-rule="evenodd"/>
    <path id="Trazado_808" data-name="Trazado 808" d="M244.5,217.917a9.61,9.61,0,0,1-4.827-9.459,9.611,9.611,0,0,1,10.6-.548c3.785,2.186,3.988,8.974,3.988,8.974S248.29,220.1,244.5,217.917Z" fill="#6fe139"/>
    <path id="Trazado_809" data-name="Trazado 809" d="M238.943,207.909l10.8,6.235-.189.328-10.8-6.236Z" fill="#2b7807" fill-rule="evenodd"/>
    <path id="Trazado_810" data-name="Trazado 810" d="M324.5,221.917a9.61,9.61,0,0,1-4.827-9.459,9.611,9.611,0,0,1,10.605-.548c3.785,2.186,3.988,8.974,3.988,8.974S328.29,224.1,324.5,221.917Z" fill="#6fe139"/>
    <path id="Trazado_811" data-name="Trazado 811" d="M318.943,211.909l10.8,6.235-.189.328-10.8-6.236Z" fill="#2b7807" fill-rule="evenodd"/>
    <path id="Trazado_812" data-name="Trazado 812" d="M196.944,98.114a9.61,9.61,0,0,1-2.215-10.386,9.61,9.61,0,0,1,10.385,2.215c3.091,3.091,1.53,9.7,1.53,9.7S200.035,101.205,196.944,98.114Z" fill="#6fe139"/>
    <path id="Trazado_813" data-name="Trazado 813" d="M194.163,87.008l8.818,8.818-.268.267L193.9,87.275Z" fill="#2b7807" fill-rule="evenodd"/>
    <path id="Trazado_814" data-name="Trazado 814" d="M305.485,194.7a9.612,9.612,0,0,1-7.111-7.887,9.611,9.611,0,0,1,10.1-3.274c4.222,1.131,6.175,7.636,6.175,7.636S309.707,195.834,305.485,194.7Z" fill="#6fe139"/>
    <path id="Trazado_815" data-name="Trazado 815" d="M297.524,186.475l12.045,3.228-.1.365-12.045-3.228Z" fill="#2b7807" fill-rule="evenodd"/>
    <path id="Trazado_816" data-name="Trazado 816" d="M118,137V282.5" fill="none" stroke="#b9802b" stroke-width="1"/>
    <path id="Trazado_817" data-name="Trazado 817" d="M131,130V275.5" fill="none" stroke="#b9802b" stroke-width="1"/>
    <path id="Trazado_818" data-name="Trazado 818" d="M145,131V276.5" fill="none" stroke="#b9802b" stroke-width="1"/>
    <path id="Trazado_819" data-name="Trazado 819" d="M158,117V262.5" fill="none" stroke="#b9802b" stroke-width="1"/>
    <path id="Trazado_820" data-name="Trazado 820" d="M114,203.123a4,4,0,0,1,3.03-3.88h0a4,4,0,0,1,4.97,3.88v9.754a4,4,0,0,1-3.03,3.88h0a4,4,0,0,1-4.97-3.88Z" fill="#dc9f43"/>
    <path id="Trazado_821" data-name="Trazado 821" d="M77.978,241.629H37.183a5.209,5.209,0,0,0-5.146,6.013L36.92,278.9a5.21,5.21,0,0,0,5.147,4.4h30.7a5.209,5.209,0,0,0,5.209-5.209Z" fill="#3383b0"/>
    <path id="Trazado_822" data-name="Trazado 822" d="M44.77,249.562,25.921,234.2a1.3,1.3,0,0,0-.823-.293H13.844a1.3,1.3,0,0,0-.921,2.223L35.562,258.77Z" fill="#3383b0"/>
    <path id="Trazado_823" data-name="Trazado 823" d="M71.466,242.931H85.791a3.907,3.907,0,0,1,3.907,3.907v10.418a3.907,3.907,0,0,1-3.907,3.906H71.466Zm14.325-1.3A5.209,5.209,0,0,1,91,246.838v10.418a5.209,5.209,0,0,1-5.209,5.209H70.164V241.629Z" fill="#3383b0" fill-rule="evenodd"/>
    <path id="Trazado_824" data-name="Trazado 824" d="M34,260.222,36.92,278.9a5.21,5.21,0,0,0,5.147,4.4h30.7a5.209,5.209,0,0,0,5.209-5.209V263.767c-2.062-1.519-8.595-3.646-16.929,0-5.661,2.477-12.091.147-17.514-1.818C39.6,260.524,36.2,259.291,34,260.222Z" fill="#86dbff" fill-rule="evenodd"/>
    <path id="Trazado_825" data-name="Trazado 825" d="M36.727,259.956l4.788,4.788-4.883,11.72-1.953-11.915L34,260.222A5.376,5.376,0,0,1,36.727,259.956Z" fill="#61c2f9" fill-rule="evenodd"/>
    <path id="Trazado_826" data-name="Trazado 826" d="M74.071,240.327a1.3,1.3,0,0,0-1.3-1.3H37.608a1.3,1.3,0,0,0-1.3,1.3v1.3H74.071Z" fill="#0c364e"/>
    <path id="Trazado_827" data-name="Trazado 827" d="M58.444,239.024a2.6,2.6,0,0,0-2.6-2.6h-.651a2.6,2.6,0,0,0-2.6,2.6h5.86Z" fill="#0c364e"/>
    <path id="Trazado_828" data-name="Trazado 828" d="M333.818,251.068c-.727-.181-2.576.682-3.409,1.137h28.864v-.682a6.462,6.462,0,0,0-1.591-.455c-.455,0-.909-.454-1.364-.454s-1.591.454-2.5.454-1.818-.909-2.5-.909h-2.954a10.736,10.736,0,0,1-4.773-.909c-1.455-.727-3.636.3-4.546.909a17.987,17.987,0,0,0-2.5.909A3.757,3.757,0,0,1,333.818,251.068Z" fill="#8e7a5b"/>
    <path id="Trazado_829" data-name="Trazado 829" d="M358.015,278.869c0,1.591-8.062,2.881-18.007,2.881S322,280.46,322,278.869s8.062-2.882,18.008-2.882S358.015,277.277,358.015,278.869Z" fill="#dfeed8"/>
    <path id="Trazado_830" data-name="Trazado 830" d="M329.454,252.938h31.693l-3.521,25.45H332.975Z" fill="#e1ae62"/>
    <path id="Trazado_831" data-name="Trazado 831" d="M357.775,279.109c-17.885-2.218-25.907-8.164-22.569-26.651h-6l3.842,26.651Z" fill="#784c0a"/>
    <path id="Trazado_832" data-name="Trazado 832" d="M332.909,278.341h25V279.7h-25Z" fill="#b9802b"/>
    <path id="Trazado_833" data-name="Trazado 833" d="M328.364,254.977a3,3,0,0,1,3-3H359a3,3,0,0,1,3,3v.364a3,3,0,0,1-3,3H331.364a3,3,0,0,1-3-3Z" fill="#b9802b"/>
    <path id="Trazado_834" data-name="Trazado 834" d="M334.675,258.341a44.129,44.129,0,0,1,.694-6.364h-5.642a1.364,1.364,0,0,0-1.363,1.364v3.636a1.363,1.363,0,0,0,1.363,1.364Z" fill="#8b5b13" fill-rule="evenodd"/>
  </g>
</svg>
