<svg xmlns="http://www.w3.org/2000/svg" width="11.499" height="16" viewBox="0 0 11.499 16">
  <path id="Trazado_416" data-name="Trazado 416" d="M874,15.29c0-1.819.77-2.878,2.008-4.583a38.931,38.931,0,0,0,3.115-4.874c.205-.384.256-.491.256-.491.2-.4.538-.405.751,0,0,0,.06.123.273.515a41.208,41.208,0,0,0,3.069,4.78c1.26,1.743,2.028,2.805,2.028,4.65a5.749,5.749,0,1,1-11.5,0Zm2.464,0a3.285,3.285,0,0,0,3.285,3.285.821.821,0,0,0,0-1.643,1.643,1.643,0,0,1-1.643-1.643.821.821,0,0,0-1.643,0Z" transform="translate(-874 -5.039)" fill="#fff" fill-rule="evenodd"/>
</svg>
