<svg xmlns="http://www.w3.org/2000/svg" width="24.675" height="24.066" viewBox="0 0 24.675 24.066">
  <path id="Trazado_8" data-name="Trazado 8" d="M971.461,27.16c.044-.517.117-1.1.226-1.722a21.247,21.247,0,0,1,.713-2.907,8.563,8.563,0,0,0,3.312.613,7.764,7.764,0,0,0,8.006-6.414l.018-.075c.793-3.361,1.238-5.251,3.689-8.2.523-.624,1.016-1.135,1.016-1.135a.694.694,0,0,0-.345-1.239s-.074-.03-.677-.182c-13.987-3.53-19.414,3.149-19.414,9.308a8.208,8.208,0,0,0,2.269,5.927q-.226.633-.413,1.275a7.449,7.449,0,0,0-4.244-3.215,1.232,1.232,0,0,0-.712,2.358,5.129,5.129,0,0,1,3.256,2.867,8.287,8.287,0,0,1,.682,2.27c.043.278.071.537.086.769.009.139.012.236.011.282a1.241,1.241,0,0,0,2.482.033C971.424,27.673,971.435,27.463,971.461,27.16Zm9.86-11a5.319,5.319,0,0,1-5.609,4.517,5.72,5.72,0,0,1-2.389-.465,12.714,12.714,0,0,1,4.882-5.563,1.232,1.232,0,0,0-1.267-2.113,14.959,14.959,0,0,0-5.568,6.075,6.122,6.122,0,0,1-.9-3.41A7.218,7.218,0,0,1,973.8,8.99c2.782-1.79,7.128-1.985,10.979-1.158a16.623,16.623,0,0,0-1.777,2.9,19.941,19.941,0,0,0-1.322,3.927C981.583,15.058,981.518,15.329,981.321,16.165Z" transform="translate(-964.03 -4.918)" fill="#fff" fill-rule="evenodd"/>
</svg>
