<svg id="Grupo_204" data-name="Grupo 204" xmlns="http://www.w3.org/2000/svg" width="27" height="27" viewBox="0 0 27 27">
  <rect id="Rectángulo_84" data-name="Rectángulo 84" width="27" height="27" rx="6" fill="#ffdc30"/>
  <path id="Trazado_448" data-name="Trazado 448" d="M4.8,12.8H7.266a4.775,4.775,0,0,0,.821,1.981L6.346,16.523a.8.8,0,1,0,1.131,1.131l1.742-1.742a4.775,4.775,0,0,0,1.981.821V19.2a.8.8,0,1,0,1.6,0V16.734a4.775,4.775,0,0,0,1.981-.821l1.742,1.742a.8.8,0,1,0,1.131-1.131l-1.742-1.742a4.775,4.775,0,0,0,.821-1.981H19.2a.8.8,0,1,0,0-1.6H16.734a4.775,4.775,0,0,0-.821-1.981l1.742-1.742a.8.8,0,1,0-1.131-1.131L14.781,8.087A4.775,4.775,0,0,0,12.8,7.266V4.8a.8.8,0,1,0-1.6,0V7.266a4.775,4.775,0,0,0-1.981.821L7.477,6.346A.8.8,0,1,0,6.346,7.477L8.087,9.219A4.775,4.775,0,0,0,7.266,11.2H4.8a.8.8,0,1,0,0,1.6Z" transform="translate(2 1.333)" fill="#fff" fill-rule="evenodd"/>
</svg>
