<svg xmlns="http://www.w3.org/2000/svg" width="23" height="23" viewBox="0 0 23 23">
  <g id="Elipse_65" data-name="Elipse 65" fill="#fb5f1b" stroke="#fb5f1b" stroke-width="1">
    <circle cx="11.5" cy="11.5" r="11.5" stroke="none"/>
    <circle cx="11.5" cy="11.5" r="11" fill="none"/>
  </g>
  <path id="Icon_ionic-ios-leaf" data-name="Icon ionic-ios-leaf" d="M14.393,14.881a4.712,4.712,0,0,1-1.512-.386A7.694,7.694,0,0,0,10.81,8.042c-1.949-1.953-4.91-.534-7.217-3.5-.537-.693-.225,7.769,2.663,10.975a4.39,4.39,0,0,0,5.279,1.24,3.348,3.348,0,0,0,1.05-1.118,6.762,6.762,0,0,0,1.683.468C14.664,16.164,14.865,14.97,14.393,14.881Zm-2.492.244a12.966,12.966,0,0,1-5.133-4.163c-.1-.122.043-.3.149-.2a16.033,16.033,0,0,0,5.247,3.559A1.382,1.382,0,0,1,11.9,15.125Z" transform="translate(3 0.835)" fill="#fff"/>
</svg>

