<svg xmlns="http://www.w3.org/2000/svg" width="32" height="32" viewBox="0 0 32 32">
  <g id="Grupo_226" data-name="Grupo 226" transform="translate(0.417 0.139)">
    <rect id="Rectángulo_84" data-name="Rectángulo 84" width="32" height="32" rx="6" transform="translate(-0.417 -0.139)"/>
    <path id="Trazado_433" data-name="Trazado 433" d="M401.2,13.485a.448.448,0,0,1-.218.375A2.673,2.673,0,0,0,399.6,16a2.4,2.4,0,0,0,4.8,0,2.69,2.69,0,0,0-1.384-2.14.448.448,0,0,1-.216-.374V10.4h-1.6ZM398,16a4,4,0,1,0,6.4-3.2V6.4a2.4,2.4,0,0,0-4.8,0v6.4A3.994,3.994,0,0,0,398,16Z" transform="translate(-386 4)" fill="#fff" fill-rule="evenodd"/>
  </g>
</svg>
