<svg xmlns="http://www.w3.org/2000/svg" width="26" height="27" viewBox="0 0 26 27">
  <g id="Grupo_397" data-name="Grupo 397" transform="translate(-0.19)">
    <rect id="Rectángulo_84" data-name="Rectángulo 84" width="26" height="27" rx="6" transform="translate(0.19)" fill="#020eb4"/>
  </g>
  <path id="Trazado_936" data-name="Trazado 936" d="M786.222,14.889a3.556,3.556,0,1,1-3.556,3.556.889.889,0,0,1,1.778,0,1.778,1.778,0,1,0,1.778-1.778h-9.776a.889.889,0,1,1,0-1.778Zm-5.333-3.556h-8a.889.889,0,0,0,0,1.778h8a3.556,3.556,0,1,0-3.556-3.556.889.889,0,1,0,1.778,0,1.778,1.778,0,1,1,1.778,1.778Zm-8.889,8a.889.889,0,0,1,.885-.889H780a.889.889,0,0,1,0,1.778h-7.119A.885.885,0,0,1,772,19.333Zm0-3.556a.889.889,0,0,1,.888-.889h.891a.889.889,0,0,1,0,1.778h-.891A.886.886,0,0,1,772,15.778Z" transform="translate(-767.19 -0.667)" fill="#fff" fill-rule="evenodd"/>
</svg>




